<svg id="_0109_report_analysis" xmlns="http://www.w3.org/2000/svg" xmlns:xlink="http://www.w3.org/1999/xlink" viewBox="0 0 500 500" data-imageid="report-analysis-11" imageName="Report Analysis" class="illustrations_image" style="width: 166px;"><defs><style>.cls-1_report-analysis-11{fill:url(#linear-gradient);}.cls-1_report-analysis-11,.cls-2_report-analysis-11,.cls-3_report-analysis-11,.cls-4_report-analysis-11,.cls-5_report-analysis-11,.cls-6_report-analysis-11,.cls-7_report-analysis-11,.cls-8_report-analysis-11,.cls-9_report-analysis-11,.cls-10_report-analysis-11,.cls-11_report-analysis-11,.cls-12_report-analysis-11,.cls-13_report-analysis-11,.cls-14_report-analysis-11,.cls-15_report-analysis-11,.cls-16_report-analysis-11,.cls-17_report-analysis-11,.cls-18_report-analysis-11,.cls-19_report-analysis-11,.cls-20_report-analysis-11{stroke-width:0px;}.cls-2_report-analysis-11{isolation:isolate;opacity:.18;}.cls-2_report-analysis-11,.cls-20_report-analysis-11{fill:#68e1fd;}.cls-3_report-analysis-11{fill:url(#linear-gradient-11-report-analysis-11);}.cls-4_report-analysis-11{fill:url(#linear-gradient-12-report-analysis-11);}.cls-5_report-analysis-11{fill:url(#linear-gradient-13-report-analysis-11);}.cls-6_report-analysis-11{fill:url(#linear-gradient-10-report-analysis-11);}.cls-7_report-analysis-11{fill:url(#linear-gradient-16-report-analysis-11);}.cls-8_report-analysis-11{fill:url(#linear-gradient-15-report-analysis-11);}.cls-9_report-analysis-11{fill:url(#linear-gradient-14-report-analysis-11);}.cls-21_report-analysis-11{fill:none;stroke:#68e1fd;stroke-miterlimit:10;stroke-width:1.02px;}.cls-10_report-analysis-11{fill:url(#linear-gradient-4-report-analysis-11);}.cls-11_report-analysis-11{fill:url(#linear-gradient-2-report-analysis-11);}.cls-12_report-analysis-11{fill:url(#linear-gradient-3-report-analysis-11);}.cls-13_report-analysis-11{fill:url(#linear-gradient-8-report-analysis-11);}.cls-14_report-analysis-11{fill:url(#linear-gradient-9-report-analysis-11);}.cls-15_report-analysis-11{fill:url(#linear-gradient-7-report-analysis-11);}.cls-16_report-analysis-11{fill:url(#linear-gradient-5-report-analysis-11);}.cls-17_report-analysis-11{fill:url(#linear-gradient-6-report-analysis-11);}.cls-18_report-analysis-11{fill:#3e3e54;}.cls-19_report-analysis-11{fill:#ffb4a3;}</style><linearGradient id="linear-gradient-report-analysis-11" x1="610.27" y1="1380.75" x2="611.7" y2="1401.36" gradientTransform="translate(-471 1784.53) scale(1 -1)" gradientUnits="userSpaceOnUse"><stop offset="0" stop-color="#000" stop-opacity="0"/><stop offset=".99" stop-color="#000"/></linearGradient><linearGradient id="linear-gradient-2-report-analysis-11" x1="704.37" y1="1391.3" x2="690.35" y2="1404.48" gradientTransform="translate(-492.05 1783.24) scale(1 -1)" xlink:href="#linear-gradient-report-analysis-11"/><linearGradient id="linear-gradient-3-report-analysis-11" x1="669.32" y1="1436.91" x2="651.57" y2="1395.12" gradientTransform="translate(-492.05 1783.24) scale(1 -1)" xlink:href="#linear-gradient-report-analysis-11"/><linearGradient id="linear-gradient-4-report-analysis-11" x1="673.81" y1="1468.91" x2="616.7" y2="1494.95" gradientTransform="translate(-492.05 1783.24) scale(1 -1)" xlink:href="#linear-gradient-report-analysis-11"/><linearGradient id="linear-gradient-5-report-analysis-11" x1="656.68" y1="1462.74" x2="583.03" y2="1471.94" gradientTransform="translate(-492.05 1783.24) scale(1 -1)" xlink:href="#linear-gradient-report-analysis-11"/><linearGradient id="linear-gradient-6-report-analysis-11" x1="620.26" y1="1413.07" x2="635.14" y2="1476.06" gradientTransform="translate(-492.05 1783.24) scale(1 -1)" xlink:href="#linear-gradient-report-analysis-11"/><linearGradient id="linear-gradient-7-report-analysis-11" x1="543.33" y1="1757.29" x2="1257.43" y2="1116.03" xlink:href="#linear-gradient-report-analysis-11"/><linearGradient id="linear-gradient-8-report-analysis-11" x1="757.81" y1="1414.82" x2="754.37" y2="1786.73" gradientTransform="translate(-471 1784.53) scale(1 -1)" gradientUnits="userSpaceOnUse"><stop offset=".02" stop-color="#fff" stop-opacity="0"/><stop offset=".32" stop-color="#fff" stop-opacity=".39"/><stop offset=".68" stop-color="#fff" stop-opacity=".68"/><stop offset="1" stop-color="#fff"/></linearGradient><linearGradient id="linear-gradient-9-report-analysis-11" x1="670.89" y1="1469.69" x2="668.88" y2="1688.41" xlink:href="#linear-gradient-8-report-analysis-11"/><linearGradient id="linear-gradient-10-report-analysis-11" x1="707.35" y1="1475.35" x2="705.78" y2="1645.48" xlink:href="#linear-gradient-8-report-analysis-11"/><linearGradient id="linear-gradient-11-report-analysis-11" x1="744.18" y1="1469.69" x2="742.16" y2="1688.41" xlink:href="#linear-gradient-8-report-analysis-11"/><linearGradient id="linear-gradient-12-report-analysis-11" x1="840.51" y1="1682.8" x2="841.65" y2="1451.47" gradientTransform="translate(-492.05 1783.24) scale(1 -1)" xlink:href="#linear-gradient-8-report-analysis-11"/><linearGradient id="linear-gradient-13-report-analysis-11" x1="866.34" y1="1645.47" x2="855.37" y2="1556.86" gradientTransform="translate(-492.05 1783.24) scale(1 -1)" xlink:href="#linear-gradient-8-report-analysis-11"/><linearGradient id="linear-gradient-14-report-analysis-11" x1="914.08" y1="1685.29" x2="911.51" y2="1579.64" xlink:href="#linear-gradient-8-report-analysis-11"/><linearGradient id="linear-gradient-15-report-analysis-11" x1="914.8" y1="1602.79" x2="911.36" y2="1475.67" xlink:href="#linear-gradient-8-report-analysis-11"/><linearGradient id="linear-gradient-16-report-analysis-11" x1="583.14" y1="1608.32" x2="582" y2="1544.95" xlink:href="#linear-gradient-8-report-analysis-11"/></defs><path id="background_report-analysis-11" class="cls-2_report-analysis-11 targetColor" d="M166.76,56.84c-8.99,13.1-13.73,28.54-20.05,43.1-13.41,30.79-34.01,57.91-60.06,79.1-17.66,14.36-38.02,26.19-51.24,44.74-26.78,37.57-15.95,89.98,3.16,132,8.14,17.88,17.79,35.44,31.81,49.19,24.97,24.45,61.67,34.2,96.57,32.4,35.14-1.81,69.3-14.21,104.52-13.86,37.27.39,72.86,15.01,109.81,19.95,36.95,4.93,80.42-3.46,99.12-35.7,13.42-23.17,10.29-52.35,2.76-78.05-7.53-25.7-19.1-50.53-21.49-77.19-3.86-41.48,14.77-83.82,4.7-124.25-4.23-16.93-13.33-32.34-24.33-45.88-27.72-33.87-69.18-56.83-112.84-59.69-15.73-1.03-31.53.47-47.2,1.95-36.52,3.48-91.63-2.19-115.24,32.2Z" style="fill: rgb(104, 225, 253);"/><g id="character_report-analysis-11"><rect class="cls-20_report-analysis-11 targetColor" x="138.71" y="381.87" width="2.49" height="23.99" style="fill: rgb(104, 225, 253);"/><rect class="cls-1_report-analysis-11" x="138.71" y="381.87" width="2.49" height="23.99"/><path class="cls-18_report-analysis-11" d="M187.35,360.01c3.74,1.9,7.14,4.41,10.06,7.41,8.99,8.64,16.56,19.07,20.15,31.01.27.62.27,1.33,0,1.95-.2.32-.48.58-.81.76-1.1.72-2.29,1.3-3.53,1.73l-19.02-19.63c-2.46-2.54-4.97-5.15-6.42-8.36-1.46-3.21-1.87-7.28-4.18-10.12-.99-1.21-2.31-2.15-3.26-3.37-1.26-1.58-1.87-3.6.62-3.57,2,.06,4.68,1.42,6.39,2.18Z"/><path class="cls-11_report-analysis-11" d="M187.53,360.4c3.74,1.9,7.14,4.41,10.06,7.43,9,8.63,16.56,19.06,20.16,31,.25.63.25,1.33,0,1.95-.21.32-.49.58-.82.77-1.1.72-2.29,1.3-3.53,1.72l-19.01-19.63c-2.46-2.54-4.98-5.14-6.43-8.36-1.46-3.22-1.86-7.28-4.18-10.12-.98-1.21-2.31-2.15-3.26-3.37-1.25-1.58-1.86-3.6.62-3.57,2,.05,4.64,1.35,6.39,2.18Z"/><path class="cls-18_report-analysis-11" d="M103.54,341.64c-1.91-7.59-4.4-13.3-3.66-20.2.03-.7.22-1.39.55-2.01.81-1.01,2.04-1.59,3.34-1.56,3.43-.14,6.81.85,9.62,2.83,2.77,1.98,5.24,4.37,7.3,7.08,6.81,8.42,12,18.21,19.83,25.7,1.52,1.47,3.33,2.91,5.44,3.01,5.97.31,12.02,1.67,17.99,1.99,3.06.17,6.26.37,8.88,1.96,2.62,1.59,6.66,5.3,5.34,8.08-.89,1.84-5.12,2.62-6.93,3.53l-7.43,3.74c-3.14,1.72-6.45,3.1-9.87,4.13-4.74,1.04-9.62,1.28-14.44.73-4.37-.33-8.82-.9-12.7-2.88-6.41-3.23-10.39-9.79-13.28-16.39s-8.23-12.8-9.98-19.76Z"/><path class="cls-19_report-analysis-11" d="M123.35,315.5c-.04.47.01.95.14,1.41.18.47.47.88.84,1.21,1.91,1.83,4.62,2.55,7.18,1.92.42-.07.8-.29,1.07-.61.27-.46.27-1.03,0-1.49-.22-.46-.58-.87-.83-1.32-1.02-1.81-.3-4.08-.59-6.13-.26-1.8-1.28-3.4-2.79-4.4-1.15-.77-3.31-1.36-4.42-.1-.81.91-.57,2.51-.53,3.63.05,1.96-.02,3.93-.07,5.89Z"/><path class="cls-19_report-analysis-11" d="M166.81,341.15c1.16-.09,2.33-.01,3.46.24.8.13,1.58.38,2.31.75.33.2.65.42.95.67.61.45,1.11,1.04,1.46,1.72.33.7.24,1.52-.24,2.13-.16.18-.37.3-.61.35-.42,0-.82-.13-1.15-.38-.74-.39-1.57-.6-2.41-.59-.26-.02-.53.04-.76.16-.36.21-.51.65-.77.97-.56.56-1.34.85-2.14.77-1.16,0-2.3-.36-3.26-1.03-.96-.67-1.64-1.66-1.93-2.79-.28-1.15.7-1.42,1.55-1.81,1.11-.58,2.32-.97,3.56-1.15Z"/><path class="cls-18_report-analysis-11" d="M181.46,368.6c-.95-.15-21.89,7.5-25.92,9.18-3.98,1.8-8.34,2.59-12.7,2.31-2.05-.2-4.06-.73-5.94-1.58-1.09-.44-2.08-1.08-2.93-1.89-1.24-1.46-2.1-3.21-2.48-5.09-.65-1.9-.87-3.91-.65-5.9,4.3.08,8.59-1.41,12.6-2.96,15.13-5.83,31.11-11.26,47.21-9.39,1.5.07,2.96.51,4.26,1.27,1.77,1.38,2.77,3.53,2.69,5.77-.11,2.22-.54,4.41-1.27,6.51-3.28,11.42-4.89,23.26-4.78,35.14-1.66.44-3.39.6-5.1.47-.54,0-1.06-.17-1.49-.49-.43-.49-.65-1.13-.62-1.78-1-11.92-2.74-19.28-2.88-31.59Z"/><path class="cls-18_report-analysis-11" d="M184.54,409.57c0,.29.1.57.28.8.25.22.56.35.89.37,5.95.95,12,1.1,17.99.44.03-.76-.29-1.5-.87-2-.56-.49-1.2-.9-1.88-1.21l-7.23-3.67c-.61-.24-1.15-.64-1.55-1.15-.29-.49-.36-1.15-.82-1.48-.28-.17-.6-.27-.92-.28-1.51-.2-4.18-.53-5.16.98-1.24,1.71-.98,5.19-.73,7.21Z"/><path class="cls-18_report-analysis-11" d="M214.68,406.98c.2.34.49.63.83.83.44.18.91.24,1.39.2l13.32-.23c.42.02.83-.04,1.22-.18.39-.16.66-.53.67-.96-.06-.34-.24-.65-.51-.87-3.3-3.22-8.68-2.93-12.7-5.25-.62-.43-1.29-.78-1.99-1.05-4.59-1.4-3.67,5.3-2.23,7.52Z"/><rect class="cls-20_report-analysis-11 targetColor" x="169.33" y="349.39" width="29.5" height="2.75" style="fill: rgb(104, 225, 253);"/><path class="cls-20_report-analysis-11 targetColor" d="M199.5,343.77c-.52.95-1.09,1.87-1.7,2.76-.55.66-.99,1.39-1.33,2.17-.3.62-.13,1.36.42,1.79.66.33,1.42-.22,1.88-.79.59-.73,1.13-1.5,1.59-2.31,1.78-2.98,3.37-6.07,4.97-9.17l4.49-8.74c.07-.1.11-.23.09-.36-.04-.11-.12-.21-.22-.27-.83-.55-1.64-.58-2.15.27-.69,1.15-1.27,2.38-1.91,3.56-1.29,2.38-2.59,4.75-3.9,7.13l-2.24,3.96Z" style="fill: rgb(104, 225, 253);"/><path class="cls-20_report-analysis-11 targetColor" d="M99.71,326.08s12.52,48.06,37.13,52.42c0,0,18.12.2,34.38-6.47,11.55-4.75,2.73,1.1,2.73,1.1,0,0-25.49,17.5-42.49,10.74-13.52-5.37-22.5-2.81-31.75-57.79Z" style="fill: rgb(104, 225, 253);"/><path class="cls-12_report-analysis-11" d="M181.65,368.6c-.96-.15-21.94,7.5-25.92,9.18-4,1.81-8.39,2.6-12.77,2.31-2.05-.2-4.06-.74-5.94-1.58-1.08-.44-2.07-1.09-2.92-1.89-1.24-1.46-2.1-3.21-2.49-5.09-.64-1.9-.86-3.91-.65-5.9,4.3.08,8.6-1.41,12.61-2.96,15.13-5.83,31.11-11.26,47.21-9.39,1.5.07,2.96.51,4.26,1.27,1.77,1.39,2.77,3.53,2.69,5.77-.11,2.22-.54,4.41-1.27,6.51-3.27,11.42-4.86,23.26-4.72,35.14-1.67.44-3.4.6-5.12.47-.53,0-1.05-.17-1.48-.49-.43-.49-.66-1.13-.64-1.78-.98-11.92-2.73-19.28-2.86-31.59Z"/><rect class="cls-20_report-analysis-11 targetColor" x="129.07" y="401.11" width="20.74" height="7.99" rx="4" ry="4" style="fill: rgb(104, 225, 253);"/><path class="cls-10_report-analysis-11" d="M163.18,309.82c.99-.59,2.06-1.02,3.18-1.28,1.74-.57,3.55-1.76,3.78-3.57.23-1.81-1.36-3.8-.85-5.66.31-.74.7-1.46,1.15-2.13.48-.7.48-1.61,0-2.31-.51-.46-1.26-.57-1.88-.28-.6.31-1.13.73-1.57,1.25l-8.38,8.65c-.89.84-1.66,1.78-2.31,2.82-.8,1.54-1.14,3.27-.99,4.99,0,1.15.17,4.49,1.4,4.98,2.39,1.02,4.92-6.29,6.49-7.46Z"/><path class="cls-19_report-analysis-11" d="M122.42,302.54c1.1,4.08,4.55,7.16,8.38,8.93,1.1.57,2.32.89,3.56.95,1.26.04,2.46-.55,3.21-1.56.53-.98.76-2.1.67-3.21l.14-7.02c.1-1.34-.02-2.69-.37-3.98-1.07-2.8-3.84-4.58-6.84-4.38-2.95.3-5.54,2.09-6.86,4.75-1.28,2.65-1.52,5.68-.69,8.5"/><path class="cls-18_report-analysis-11" d="M121.47,291.51c.66-.21,1.28-.51,1.85-.91.31-.29.53-.68.82-.99.88-.75,2.01-1.16,3.16-1.15,3.86-.4,7.86-.58,11.55.72,1.16.29,2.15,1.07,2.7,2.14.16.47.22.97.18,1.47-.04,1.17-.45,2.3-1.15,3.23-1.19,1.3-2.85,2.08-4.62,2.14-.66.02-1.31.08-1.96.2-.66.14-1.23.56-1.55,1.15-.4.84,0,1.87-.35,2.75-.04.11-.1.21-.18.3-.27.24-.72.09-.97-.17s-.39-.64-.65-.89c-.59-.51-1.47-.51-2.06,0-.57.52-.82,1.29-.68,2.04.15.74.5,1.42,1.03,1.96.09.08.15.18.16.3-.02.08-.06.16-.12.22-.49.6-1.29.85-1.79,1.46s-.57,1.26-1.15,1.66c-.5.28-1.07.4-1.64.32-.4,0-.79-.08-1.15-.23-.64-.44-1.06-1.13-1.15-1.89-.88-3.46-1.15-7.05-2.54-10.32-.87-1.94.5-4.65,2.26-5.49Z"/><path class="cls-20_report-analysis-11 targetColor" d="M161.75,306.57c-.17.69-.58,1.29-1.15,1.71l-4.05,3.67-18.72,16.91c-.68-1.3-1.57-2.47-2.64-3.46-3.46-3.41-8-6.1-3.46-8.79,1.5-.88,21.3-12.4,25.66-15.35.69-.48,1.63-.31,2.11.38.04.05.07.11.1.17l1.63,3.04c.35.51.54,1.11.54,1.73Z" style="fill: rgb(104, 225, 253);"/><path class="cls-16_report-analysis-11" d="M157.27,311l-.74.85-18.72,16.38c-.68-1.26-1.58-2.39-2.64-3.35.61-3.92,4.99-5.77,7.97-8.25,3.81-3.2,7.74-6.58,12.7-8,.72-.21,1.65-.31,2.07.3s-.13,1.47-.64,2.07Z"/><path class="cls-20_report-analysis-11 targetColor" d="M148.48,357.05c-.85,4.49-4.2,8.08-8.62,9.24-5.34,1.09-10.83-.95-14.16-5.25-1.7-2.27-2.96-4.84-3.74-7.56-3.46-10.86-5.77-24.61-1.15-35.05.84-1.92,3.13-2.73,5.22-2.99,6.13-1.21,12.07,2.78,13.28,8.91,0,0,0,.01,0,.02.73,3.06,1.08,6.19,1.04,9.33.17,3.83,1.37,7.55,3.46,10.76.38.61.8,1.21,1.15,1.82,1.69,2.58,3.31,5.23,3.63,8.26.08.84.04,1.69-.12,2.52Z" style="fill: rgb(104, 225, 253);"/><path class="cls-17_report-analysis-11" d="M148.48,357.05c-3.03.38-6.09.58-9.15.58-3,.12-6-.17-8.92-.87-2.94-.7-5.56-2.36-7.46-4.71-3.07-4.07-2.81-9.63-2.95-14.73-.08-2.73-.3-5.59.88-8.08,1-2.06,2.85-3.59,5.07-4.17,1.97-.47,4.04-.24,5.87.65,1.55.79,1.74,2.4,2.02,4,.81,4.75.15,9.66,1.4,14.34.1.55.35,1.06.73,1.48.64.47,1.43.69,2.22.62,2.24.07,4.48.12,6.73.15,1.69,2.58,3.31,5.23,3.63,8.26.09.83.07,1.66-.07,2.48Z"/><path class="cls-20_report-analysis-11 targetColor" d="M135.25,339.5c.1.55.35,1.06.73,1.48.64.47,1.43.69,2.22.62,7.79.25,15.59.25,23.4,0,.31-.04.62.01.9.14.19.13.36.3.47.51,1.03,1.72.86,3.91-.43,5.45-.89.91-1.98,1.6-3.19,2.01-6.29,2.59-13.21,3.3-20.03,3.36-3,.12-6-.17-8.92-.87-2.94-.71-5.56-2.37-7.46-4.72-3.07-4.07-2.79-9.62-2.95-14.71-.08-2.74-.29-5.6.88-8.08,1-2.07,2.85-3.59,5.07-4.17,1.97-.46,4.04-.23,5.87.65,1.55.79,1.76,2.4,2.02,4.01.82,4.75.16,9.66,1.41,14.33Z" style="fill: rgb(104, 225, 253);"/><path class="cls-19_report-analysis-11" d="M161.39,297c2.02-1.57,4.23-2.88,6.57-3.9.24-.17.55-.22.83-.15.26.13.41.4.39.68,0,1.15-1.62,1.66-2.15,2.73-.53,1.06,0,2.11.18,3.19.15,1.54-.45,3.06-1.59,4.1-1.66,1.56-5.98,2.91-7.53.44-1.55-2.47,1.69-5.73,3.29-7.08Z"/></g><g id="graphic_data_report-analysis-11"><rect class="cls-15_report-analysis-11" x="158.64" y="115.43" width="260.92" height="212.93" rx="15.88" ry="15.88"/><rect class="cls-20_report-analysis-11 targetColor" x="154.95" y="112.45" width="260.92" height="212.93" rx="15.88" ry="15.88" style="fill: rgb(104, 225, 253);"/><rect class="cls-20_report-analysis-11 targetColor" x="154.95" y="112.45" width="260.92" height="212.93" rx="15.88" ry="15.88" style="fill: rgb(104, 225, 253);"/><rect class="cls-13_report-analysis-11" x="154.95" y="112.45" width="260.92" height="212.93" rx="15.88" ry="15.88"/><rect class="cls-14_report-analysis-11" x="187.9" y="163.03" width="22.34" height="126.26"/><rect class="cls-6_report-analysis-11" x="224.55" y="191.12" width="22.34" height="98.17"/><rect class="cls-3_report-analysis-11" x="261.19" y="163.03" width="22.34" height="126.26"/><path class="cls-4_report-analysis-11" d="M392.37,207.55c0,1.67-.1,3.35-.29,5.01-2.77,23.8-24.31,40.84-48.1,38.07-23.8-2.77-40.84-24.31-38.07-48.1,2.33-19.99,18.09-35.75,38.07-38.07,1.67-.19,3.35-.29,5.02-.29,23.95,0,43.37,19.43,43.37,43.38Z"/><path class="cls-5_report-analysis-11" d="M392.37,207.55c0,1.67-.1,3.35-.29,5.01h-48.15v-48.1c1.67-.19,3.35-.29,5.02-.29,23.96-.02,43.39,19.39,43.41,43.34v.03Z"/></g><g id="bubble_chat_report-analysis-11"><polyline class="cls-21_report-analysis-11" points="363.43 185.73 378.87 158.65 426.31 158.65"/><polyline class="cls-21_report-analysis-11" points="338.21 230.02 369.56 261.38 433.55 261.38"/><polyline class="cls-21_report-analysis-11" points="198.3 222.86 179.22 203.78 111.64 203.78"/><rect class="cls-20_report-analysis-11 targetColor" x="423.15" y="143.46" width="37.03" height="28.25" rx="7.83" ry="7.83" style="fill: rgb(104, 225, 253);"/><rect class="cls-20_report-analysis-11 targetColor" x="423.15" y="246.54" width="37.03" height="28.25" rx="7.83" ry="7.83" style="fill: rgb(104, 225, 253);"/><rect class="cls-20_report-analysis-11 targetColor" x="93.13" y="189.66" width="37.03" height="28.25" rx="7.83" ry="7.83" style="fill: rgb(104, 225, 253);"/><rect class="cls-9_report-analysis-11" x="423.15" y="143.46" width="37.03" height="28.25" rx="7.83" ry="7.83"/><rect class="cls-8_report-analysis-11" x="423.15" y="246.54" width="37.03" height="28.25" rx="7.83" ry="7.83"/><rect class="cls-7_report-analysis-11" x="93.13" y="189.66" width="37.03" height="28.25" rx="7.83" ry="7.83"/></g></svg>