<svg version="1.1" id="Layer_1" xmlns="http://www.w3.org/2000/svg" xmlns:xlink="http://www.w3.org/1999/xlink" x="0px" y="0px" viewBox="0 0 500 500" style="width: 166px;" xml:space="preserve" data-imageid="user-interface-42" imageName="User Interface" class="illustrations_image">
<style type="text/css">
	.st0_user-interface-42{fill:#F9D8A3;}
	.st1_user-interface-42{opacity:0.32;fill:url(#SVGID_1_);enable-background:new    ;}
	.st2_user-interface-42{opacity:0.32;fill:url(#SVGID_00000042704764116011205310000009655899294021238192_);enable-background:new    ;}
	.st3_user-interface-42{opacity:0.32;fill:url(#SVGID_00000135684295982329693140000009303412983511524754_);enable-background:new    ;}
	.st4_user-interface-42{fill:#E2AC00;}
	.st5_user-interface-42{fill:#F2F2F2;}
	.st6_user-interface-42{fill:#EA7554;}
	.st7_user-interface-42{fill:#68E1FD;}
	.st8_user-interface-42{opacity:0.15;fill:#15156D;enable-background:new    ;}
	.st9_user-interface-42{opacity:0.7;fill:#15156D;enable-background:new    ;}
	.st10_user-interface-42{fill:#938F05;}
	.st11_user-interface-42{fill:#42352F;}
	.st12_user-interface-42{opacity:0.55;}
	.st13_user-interface-42{fill:#FFAC99;}
	.st14_user-interface-42{fill:#CE5438;}
</style>
<path id="Base_user-interface-42" class="st0_user-interface-42" d="M102.4,294.9l-63.3,36.5l163.6,95l258.2-149.1l-177.2-114"/>
<g id="Shadow_user-interface-42">
	
		<linearGradient id="SVGID_1_-user-interface-42" gradientUnits="userSpaceOnUse" x1="214.3677" y1="-1937.2043" x2="229.8577" y2="-1945.4944" gradientTransform="matrix(1 0 0 1 0 2273.8401)">
		<stop offset="0" style="stop-color:#F2F2F2;stop-opacity:0"/>
		<stop offset="0.99" style="stop-color:#EA7554"/>
	</linearGradient>
	<polyline class="st1_user-interface-42" points="317.3,289.5 221.5,350.4 195.7,331 284.8,281.3 &#9;"/>
	
		<linearGradient id="SVGID_00000018926433864650711880000011178653383740626306_-user-interface-42" gradientUnits="userSpaceOnUse" x1="159.4815" y1="-1870.118" x2="177.3715" y2="-1883.1678" gradientTransform="matrix(1 0 0 1 0 2273.8401)">
		<stop offset="0" style="stop-color:#F2F2F2;stop-opacity:0"/>
		<stop offset="0.99" style="stop-color:#EA7554"/>
	</linearGradient>
	
		<polyline style="opacity:0.32;fill:url(#SVGID_00000018926433864650711880000011178653383740626306_);enable-background:new    ;" points="&#10;&#9;&#9;266.9,360.5 177.9,411.6 134,387.2 212.5,343.5 &#9;"/>
	
		<linearGradient id="SVGID_00000118395883980196460620000009260696712299387536_-user-interface-42" gradientUnits="userSpaceOnUse" x1="328.369" y1="-1947.3213" x2="375.129" y2="-1986.4412" gradientTransform="matrix(1 0 0 1 0 2273.8401)">
		<stop offset="0" style="stop-color:#F2F2F2;stop-opacity:0"/>
		<stop offset="0.99" style="stop-color:#EA7554"/>
	</linearGradient>
	
		<polyline style="opacity:0.32;fill:url(#SVGID_00000118395883980196460620000009260696712299387536_);enable-background:new    ;" points="&#10;&#9;&#9;407.8,285.6 327.9,330.9 306.8,319.1 385.3,275.4 &#9;"/>
</g>
<g id="Screens_user-interface-42">
	<path class="st4_user-interface-42" d="M153.8,345.7l96.1-56.1c1.6-0.9,3.6-0.4,4.6,1.2c0.3,0.5,0.4,1.1,0.4,1.6v31.9c0,1.2-0.6,2.3-1.7,2.9&#10;&#9;&#9;l-96.1,54.9c-1.6,0.9-3.6,0.4-4.5-1.2c-0.3-0.5-0.4-1-0.4-1.6l-0.5-29.8C151.6,348,152.4,346.5,153.8,345.7z"/>
	
		<ellipse transform="matrix(0.5993 -0.8005 0.8005 0.5993 -217.6264 278.6104)" class="st5_user-interface-42" cx="169.5" cy="356.7" rx="10.4" ry="9.1"/>
	<path class="st5_user-interface-42" d="M187.8,342.6L227,320c0.7-0.5,0.8-1.5,0.3-2.2c-0.4-0.6-1.2-0.8-1.9-0.5l-39.2,22.6c-0.7,0.5-0.9,1.5-0.4,2.2&#10;&#9;&#9;c0,0,0,0,0,0C186.3,342.7,187.1,342.9,187.8,342.6z"/>
	<path class="st5_user-interface-42" d="M189.4,351.8l54-31.1c0.7-0.5,0.9-1.5,0.4-2.2c-0.4-0.7-1.3-0.9-2-0.5l-54,31.1c-0.7,0.5-0.8,1.5-0.3,2.2&#10;&#9;&#9;C187.9,351.9,188.7,352.1,189.4,351.8z"/>
	<path class="st6_user-interface-42" d="M172.1,355.8l96.1-56.1c1.6-0.9,3.6-0.4,4.5,1.2c0.3,0.5,0.5,1.1,0.5,1.6v32c0,1.2-0.6,2.3-1.7,2.9l-96.1,54.9&#10;&#9;&#9;c-1.6,0.9-3.6,0.4-4.5-1.2c-0.3-0.5-0.5-1.1-0.5-1.6l-0.5-29.8C169.8,358.1,170.7,356.6,172.1,355.8z"/>
	
		<ellipse transform="matrix(0.5993 -0.8005 0.8005 0.5993 -218.3574 297.3127)" class="st5_user-interface-42" cx="187.8" cy="366.8" rx="10.4" ry="9.1"/>
	<path class="st5_user-interface-42" d="M206.1,352.7l39.2-22.6c0.7-0.5,0.8-1.5,0.3-2.2c-0.4-0.6-1.2-0.8-1.9-0.5l-39.2,22.5&#10;&#9;&#9;c-0.7,0.5-0.9,1.5-0.4,2.2c0,0,0,0,0,0C204.6,352.7,205.4,353,206.1,352.7L206.1,352.7z"/>
	<path class="st5_user-interface-42" d="M207.7,361.9l54-31.1c0.7-0.5,0.9-1.5,0.4-2.2c-0.4-0.6-1.3-0.8-2-0.5l-54,31.1c-0.7,0.5-0.9,1.5-0.4,2.2&#10;&#9;&#9;C206.1,362,207,362.2,207.7,361.9z"/>
	<path class="st7_user-interface-42 targetColor" d="M189.2,366.5l96.1-56.1c1.6-0.9,3.6-0.4,4.5,1.2c0.3,0.5,0.4,1,0.5,1.6v31.9c0,1.2-0.6,2.3-1.7,2.9l-96.1,55&#10;&#9;&#9;c-1.6,0.9-3.6,0.4-4.5-1.2c-0.3-0.5-0.4-1-0.5-1.6l-0.5-29.8C186.9,368.8,187.7,367.3,189.2,366.5z" style="fill: rgb(104, 225, 253);"/>
	<path class="st8_user-interface-42" d="M189.2,366.5l96.1-56.1c1.6-0.9,3.6-0.4,4.5,1.2c0.3,0.5,0.4,1,0.5,1.6v31.9c0,1.2-0.6,2.3-1.7,2.9l-96.1,55&#10;&#9;&#9;c-1.6,0.9-3.6,0.4-4.5-1.2c-0.3-0.5-0.4-1-0.5-1.6l-0.5-29.8C186.9,368.8,187.7,367.3,189.2,366.5z"/>
	
		<ellipse transform="matrix(0.5993 -0.8005 0.8005 0.5993 -220.0774 315.2599)" class="st5_user-interface-42" cx="204.9" cy="377.5" rx="10.4" ry="9.1"/>
	<path class="st5_user-interface-42" d="M223.1,363.4l39.2-22.6c0.7-0.5,0.9-1.5,0.4-2.2c-0.4-0.6-1.3-0.9-2-0.5l-39.2,22.6c-0.7,0.5-0.8,1.5-0.3,2.2&#10;&#9;&#9;C221.7,363.5,222.5,363.7,223.1,363.4L223.1,363.4z"/>
	<path class="st5_user-interface-42" d="M224.8,372.6l54-31.1c0.7-0.5,0.9-1.5,0.4-2.2c-0.4-0.7-1.3-0.9-2-0.5l-54,31.1c-0.7,0.5-0.9,1.5-0.4,2.2&#10;&#9;&#9;c0,0,0,0,0,0C223.2,372.7,224.1,372.9,224.8,372.6z"/>
</g>
<g id="Plant_user-interface-42">
	<path class="st7_user-interface-42 targetColor" d="M385.2,257.2c0,0-4.5,30.9,14.9,31c18.7,0.1,13.9-31.4,13.9-31.4S400.4,245,385.2,257.2z" style="fill: rgb(104, 225, 253);"/>
	<path class="st8_user-interface-42" d="M385.2,257.2c0,0-4.5,30.9,14.9,31c18.7,0.1,13.9-31.4,13.9-31.4S400.4,245,385.2,257.2z"/>
	<ellipse class="st7_user-interface-42 targetColor" cx="399.5" cy="257.2" rx="14.4" ry="5.9" style="fill: rgb(104, 225, 253);"/>
	<ellipse class="st9_user-interface-42" cx="399.5" cy="257.2" rx="14.4" ry="5.9"/>
	<path class="st10_user-interface-42" d="M376.9,212c0,0-10-2.4-6.2-10.8C370.7,201.3,377.6,202.7,376.9,212z"/>
	<path class="st10_user-interface-42" d="M383,220.5c0,0-1.4-7.1,4.2-10C387.2,210.5,391.6,217.9,383,220.5z"/>
	<path class="st10_user-interface-42" d="M389.2,231.4c0,0-1.7-8.5,5-12C394.2,219.4,399.6,228.4,389.2,231.4z"/>
	<path class="st10_user-interface-42" d="M394.1,243.3c0,0-1.7-8.5,5-12C399.1,231.3,404.4,240.3,394.1,243.3z"/>
	<path class="st10_user-interface-42" d="M382.4,220.6c0,0-3.5-6.3-9.6-4.9C372.7,215.7,374.1,224.3,382.4,220.6z"/>
	<path class="st10_user-interface-42" d="M388.7,231.7c0,0-4.5-7.4-11.8-5.5C377,226.2,379,236.4,388.7,231.7z"/>
	<path class="st10_user-interface-42" d="M393.5,243.4c0,0-5.3-6.9-12.3-4.2C381.2,239.3,384.4,249.2,393.5,243.4z"/>
	<path class="st11_user-interface-42" d="M397.3,263.2h0.1c0.5,0,0.9,0,1.4,0.1v-0.1c-2.2-19.1-9.7-37.1-21.6-52.2c-0.6-0.8-1.7,0.3-1.1,1.1&#10;&#9;&#9;C387.8,226.8,395.1,244.5,397.3,263.2L397.3,263.2z"/>
	<path class="st10_user-interface-42" d="M421,225.7c0,0,8.6-2,5.3-9.2C426.3,216.4,420.4,217.6,421,225.7z"/>
	<path class="st10_user-interface-42" d="M415.8,232.9c0,0,1.2-6.1-3.6-8.6C412.2,224.3,408.3,230.7,415.8,232.9z"/>
	<path class="st10_user-interface-42" d="M410.4,242.2c0,0,1.4-7.3-4.3-10.3C406.1,232,401.5,239.6,410.4,242.2z"/>
	<path class="st10_user-interface-42" d="M406.2,252.5c0,0,1.4-7.3-4.3-10.3C402,242.2,397.4,249.9,406.2,252.5z"/>
	<path class="st10_user-interface-42" d="M416.3,233c0,0,3-5.4,8.3-4.2C424.6,228.8,423.4,236.2,416.3,233z"/>
	<path class="st10_user-interface-42" d="M410.9,242.5c0,0,3.9-6.4,10.1-4.7C420.9,237.8,419.2,246.6,410.9,242.5z"/>
	<path class="st10_user-interface-42" d="M406.7,252.6c0,0,4.6-5.9,10.5-3.5C417.3,249,414.6,257.5,406.7,252.6z"/>
	<path class="st11_user-interface-42" d="M420.7,224.8c-8.9,11.2-14.9,24.3-17.6,38.4c0.5-0.1,0.9-0.1,1.4-0.2c2.7-13.6,8.5-26.3,17.1-37.2&#10;&#9;&#9;C422.2,225,421.3,224.1,420.7,224.8z"/>
</g>
<g id="Screen_user-interface-42">
	<path class="st7_user-interface-42 targetColor" d="M95.4,179.7L278.6,74.2c2.7-1.6,6.1-0.7,7.7,2c0.4,0.7,0.7,1.5,0.7,2.4l11.8,146.2c0.2,2.2-0.9,4.2-2.8,5.3&#10;&#9;&#9;L116.6,331.7c-2.7,1.5-6.1,0.6-7.6-2.1c-0.4-0.6-0.6-1.4-0.7-2.1L92.6,185.2C92.4,183,93.4,180.8,95.4,179.7z" style="fill: rgb(104, 225, 253);"/>
	<polygon class="st4_user-interface-42" points="279.5,105.6 222.8,139.3 229.4,221.1 286.4,189 &#9;"/>
	<polygon class="st0_user-interface-42" points="212.9,144.3 156.1,178.1 162.8,259.9 219.8,227.8 &#9;"/>
	<path class="st0_user-interface-42" d="M144.4,184.4c0,0.4,3.1,33.6,3.1,33.6s-37.5,21.3-37.3,21s-3.8-32.9-3.8-32.9L144.4,184.4z"/>
	<path class="st6_user-interface-42" d="M150,227.9c0,0.4,3.1,33.6,3.1,33.6s-37.5,21.3-37.3,21s-3.8-33-3.8-33L150,227.9z"/>
	<g class="st12_user-interface-42">
		<path class="st5_user-interface-42" d="M261.8,191.7c-4.2-0.4-7-6-6.5-12.9s4.3-12,8.6-11.6s7,6,6.5,12.9S266.1,192,261.8,191.7z M263.7,169.4&#10;&#9;&#9;&#9;c-2.8-0.2-5.6,4.2-6.1,9.5s1.5,10.2,4.4,10.4s5.6-4.2,6.1-9.5S266.6,169.6,263.7,169.4L263.7,169.4z"/>
	</g>
</g>
<g id="Character_user-interface-42">
	<path class="st13_user-interface-42" d="M285.1,164.9c0,0,0.6-3.9,0-5.5c-0.5-1.9-0.8-3.8-0.9-5.7c-0.8-0.2-1.6,0.3-1.9,1c-0.5,1.3,0.6,4.6,0.6,4.6&#10;&#9;&#9;s-3.3,6.8,0,9.9S285.1,164.9,285.1,164.9z"/>
	<path class="st14_user-interface-42" d="M306.8,186.1l-21.7-21.2c0,0-4.9,10.7,0,15.6l19.9,19.8"/>
	<path class="st6_user-interface-42" d="M310.9,273.6c0,0,3,4.2,2.8,6.6s-4.1,6.5-4.9,8.3s-1.1,2.5,0,3.8s10.4-6.9,10.6-8.2s-1.3-6.3-1.3-6.3l4.2,5.2&#10;&#9;&#9;l3-1.8l-6.4-10.8"/>
	<path class="st11_user-interface-42" d="M309.7,292.3c0.2-0.2,7.6-2.8,7.6-2.8s3.5-3.6,3.4-5s-1.4-6.9-2.7-6.8s-1.4,7.3-1.4,7.3L309.7,292.3z"/>
	<path class="st6_user-interface-42" d="M300.9,280.5l-0.9,11.1c0,0-2.4,1.8-3,1.6s-2.3-0.6-2.4-0.9s0.8-7.8,0.6-8s-3.9,5.8-5.1,5.9s-9.9-5-9.1-6.9&#10;&#9;&#9;s5.1-0.9,7.2-0.9c3-0.1,5.5-2,6.5-4.8"/>
	<path class="st10_user-interface-42" d="M295.4,250.5l-5.4,28.4c0,0,3.1,4,14.1,3.5l8.2-20.1"/>
	<path class="st10_user-interface-42" d="M293,206c0,0-8.2,12-5.7,31.6c2.2,17.3,19.5,37.6,19.5,37.6s5.2,2.3,15.9-7.9l-11.9-18.9&#10;&#9;&#9;c0,0,11.6-26.8-2.1-43.8"/>
	<path class="st13_user-interface-42" d="M269.7,182.9c-0.1-0.7-0.6-1.2-1.3-1.1c-0.6,0.1-1,0.5-1.1,1.1l0,0v2.4l-0.3-0.5c-0.9-2.3-1.7-4.6-2.1-7&#10;&#9;&#9;c-0.3-1.6-2.5-0.9-2.3,0.6c0.2,1.2,0.4,2.3,0.7,3.5l-0.2-0.1c-0.8-0.3-1.7,0.2-2,1c0,0,0,0,0,0v0.1c-0.1,0.4-0.1,0.8,0,1.1h-0.2&#10;&#9;&#9;c-0.9,0.2-1.5,1.2-1.3,2.1c0.1,0.2,0.2,0.4,0.3,0.6c-0.3,0.2-0.5,0.6-0.6,0.9c-0.1,0.9,0.3,1.7,1,2.2c0.8,0.7,1.7,1.6,2.5,2.3&#10;&#9;&#9;c1,1,2.1,1.9,3,2.7s2.5-1.8,2.5-2.6c0.6,0.2,1.2-0.2,1.4-0.8c0-0.1,0-0.2,0-0.4C269.7,188.4,269.6,185.7,269.7,182.9z"/>
	<path class="st14_user-interface-42" d="M264.9,185.5c-0.6-1.2-1.1-2.4-1.6-3.6c-0.1-0.2-0.5-0.1-0.4,0.1c0.5,1.3,1,2.5,1.6,3.7&#10;&#9;&#9;C264.6,185.9,265,185.7,264.9,185.5z"/>
	<path class="st6_user-interface-42" d="M294.2,179.4c-2.1,1.8-4,3.9-5.6,6.2c-1.6,2.5-7.8,9.4-10.4,7.3s-7.1-6-7.1-6s-6.5,4.5-5.8,9.1&#10;&#9;&#9;c0,0,5.8,11.8,14.8,9.2s11.2-6,11.2-6l1.4,7.7c0,0,11.2,3.5,16.3-1.7c0,0,3.4-22,0.9-25.3"/>
	<path class="st13_user-interface-42" d="M293,166.1c-0.1,0.2-0.3,8.2,2.4,9s7.3-1.1,8.5-3.7s-0.5-10.6-4.8-11.1S293.8,163.7,293,166.1z"/>
	<path class="st0_user-interface-42" d="M296.3,167.5c1.8,1.2,0.7,3.5-0.1,5c-0.6,1.1-0.8,2.4-0.8,3.7c0,1.2-0.4,2.3-1.2,3.2c-0.6,0.8-1.1,1.6-1.5,2.5&#10;&#9;&#9;c4,0.7,8,0.8,12,0.1c3.3-0.3,6.6-0.7,9.8-1.3c0-0.7-0.2-1.4-0.5-2c-0.8-1.8-2-2.7-1.7-4.8c0.4-1.6,0.5-3.2,0.1-4.8&#10;&#9;&#9;c-0.6-1.6-2-2.4-3.3-3.4c-0.4-0.3-0.7-0.6-1.1-0.9l-0.3-0.5c-0.7-1.4-1.5-2.8-2.4-4.1c-1.1-1.1-2.4-1.8-3.9-2&#10;&#9;&#9;c-3.1-0.6-6.3,0.1-8.9,2c0,0-2.3,2.2-1.6,4.6S294.7,166.5,296.3,167.5z"/>
	<path class="st11_user-interface-42" d="M294.2,256.3c0,0,9.5,16.4,12.6,18.8l-2.6,7.2C304.2,282.4,293.2,267,294.2,256.3z"/>
	<path class="st11_user-interface-42" d="M310.6,247.6c-3-6.4-4.7-13.3-4.9-20.3c0-0.6-0.9-0.6-0.9,0c0.2,7.2,2,14.3,5.1,20.8&#10;&#9;&#9;C310.1,248.5,310.9,248.1,310.6,247.6z"/>
</g>
</svg>