<svg version="1.1" id="Layer_1" xmlns="http://www.w3.org/2000/svg" xmlns:xlink="http://www.w3.org/1999/xlink" x="0px" y="0px" viewBox="0 0 500 500" style="width: 181px;" xml:space="preserve" data-imageid="explosion-1-97" imageName="Explosion 1" class="illustrations_image">
<style type="text/css">
	.st0_explosion-1-97{fill:#68E1FD;}
	.st1_explosion-1-97{opacity:0.32;fill:#284684;enable-background:new    ;}
	.st2_explosion-1-97{fill:url(#SVGID_1_);}
	.st3_explosion-1-97{opacity:0.55;}
	.st4_explosion-1-97{fill:#FFFFFF;}
	.st5_explosion-1-97{fill:#FF7703;}
	.st6_explosion-1-97{fill:#FEBB27;}
	.st7_explosion-1-97{fill:#FA9425;}
	.st8_explosion-1-97{opacity:0.64;}
</style>
<path id="field_explosion-1-97" class="st0_explosion-1-97 targetColor" d="M243.2,410.6L28.4,283.6c-6.8-3.8-12.7-10.1-6-14.3l215.5-124.2c3.2-2,8.1-3.3,11.4-1.4l225.4,130.8&#10;&#9;c6.8,4,8.1,15.1,1.2,19L271.5,410.4C262.7,415.4,252,415.5,243.2,410.6z" style="fill: rgb(104, 225, 253);"/>
<g id="explosion_explosion-1-97">
	<polyline class="st1_explosion-1-97" points="291.4,342.2 195.6,382.5 119.1,337.3 214,291 &#9;"/>
	
		<linearGradient id="SVGID_1_-explosion-1-97" gradientUnits="userSpaceOnUse" x1="253.6185" y1="172.3301" x2="260.2385" y2="248.9001" gradientTransform="matrix(1 0 0 -1 0 502)">
		<stop offset="0" style="stop-color:#FFF42A"/>
		<stop offset="1" style="stop-color:#FF8A15"/>
	</linearGradient>
	<path class="st2_explosion-1-97" d="M291.8,289.2c-0.2-0.4-0.3-0.8-0.5-1.2c-0.2-0.6-0.5-1.1-0.7-1.7c-0.3-0.9-0.6-1.7-0.9-2.6l-0.2-0.7&#10;&#9;&#9;c-1.2-3.6-2.1-7.4-2.9-11.2c-3-14.3-4.4-29.6-2.5-44.4c-19.4-10.1-53.5-9.5-66.3,0.7c2.2,18.1,2.7,36.8-1.4,54.4&#10;&#9;&#9;c-0.2,0.9-0.5,1.9-0.7,2.8s-0.4,1.6-0.6,2.4c-0.1,0.3-0.2,0.6-0.3,0.9c-0.2,0.9-0.5,1.7-0.8,2.6c0,0,0,0.1-0.1,0.1&#10;&#9;&#9;c-11.5,6.5-18.8,15.7-18.8,25.9c0,19.7,26.7,31.5,59.6,31.5s59.6-11.8,59.6-31.5C314.3,305.8,305.5,295.7,291.8,289.2z"/>
	<g class="st3_explosion-1-97">
		
			<image style="overflow:visible;enable-background:new    ;" width="1126" height="557" xlink:href="677402EE40E87FFF.png" transform="matrix(0.24 0 0 0.24 117.6 198.29)">
		</image>
		<path class="st4_explosion-1-97" d="M253.8,316.8c-63.8,0-121.8-25.5-121.1-51.7c0.8-29.9,57.3-51.7,121.1-51.7s118.8,22.7,118.8,51.7&#10;&#9;&#9;&#9;S317.6,316.8,253.8,316.8z M254.1,223.9c-10.5-0.1-21,0.8-31.3,2.5c-22.7,3.8-48.8,11.4-62.4,29.6c-6.5,8.6-3.1,17.3,5,23.8&#10;&#9;&#9;&#9;c23.2,18.6,59.4,25.9,89.4,25.9c23.7,0,47.9-4.8,69.1-14.5c13-6,37.8-19.1,25.9-35.5c-10.5-14.4-33.1-21-50.5-25.7&#10;&#9;&#9;&#9;C284.6,226,269.4,223.9,254.1,223.9L254.1,223.9z"/>
	</g>
	<path class="st5_explosion-1-97" d="M379.6,168.8c-1.1-6.3-5.9-11.6-11.9-15.1c2.9-10.2,0-23.3-5.2-31.2c-5.8-8.7-16.3-11.3-26.2-9.4&#10;&#9;&#9;c-3.3-9.5-11.4-18.5-19.1-20.7c-10-3-20.4,0.1-26.4,6.9c-6.9-2.9-14.5-3.8-21.8-2.4c-4.7-8.2-14.1-12.5-23.4-10.6&#10;&#9;&#9;c-5.2,1-9.7,4-12.8,8.2c-5.8-5.4-13.2-8.9-21-8.2s-12.9,5.9-15.2,12.4c-7.3-0.7-14.9,2.4-21.3,7c-5.1,3.6-8.5,9.1-9.4,15.3&#10;&#9;&#9;c-10.4,1.2-19.6,7-24.1,17.4c-2.2,5.4-2.9,11.3-2,17c-2,0.8-3.9,2-5.6,3.4c-6.1,5.3-6.2,13.1-1.6,19.4c1.9,2.6,4.2,4.9,6.8,6.8&#10;&#9;&#9;c-0.6,7.1,2.7,15.3,7.6,19.6c3.4,3,7.7,4.9,12.2,5.2c1.3,5.5,6,9.5,11.6,9.9c3.2,0.1,6.4-0.6,9.3-2c2.5,3.7,6,6.6,10.2,8.2&#10;&#9;&#9;c4.9,1.8,10.3,1.8,15.2,0c5.1,8.9,15.1,13.8,25.3,12.4c4.6,2.7,10.9,3.1,15.7,3c6.7-0.2,13.3-1.7,19.4-4.6c1,0,1.9-0.1,2.9-0.2&#10;&#9;&#9;c7.7,7.9,19.7,9.9,29.5,4.7c3.7-1.9,6.8-4.8,9-8.4c7.3,3.6,16.8,2.5,23.9-2c5.2-3.3,8.7-8.8,9.6-14.9c9.4,0.4,19.1-3.5,24.4-11.6&#10;&#9;&#9;c2.3-3.4,3.2-7.7,2.3-11.8C375.7,187.5,381.3,178.3,379.6,168.8z"/>
	<path class="st6_explosion-1-97" d="M360.5,166c6.1-8.3,4.5-18.4,0.4-27.2c-7.2-15.8-22.5-21-38.2-21c-0.1-4.3-1.3-8.5-3.6-12.2&#10;&#9;&#9;c-5.8-9.7-16.4-15.8-27.2-18.3c-17.5-3.9-38.2-0.5-50.4,12.4c-11.4-8.8-28.5-10.9-42-7.1c-12.1,3.4-24.1,13.8-25.6,26.1&#10;&#9;&#9;c-16.2-4.2-34,5.1-37.4,22.9c-1.8,9.6,0,22,7.7,28.7c2.4,2.1,5.2,3.6,8.3,4.4c-4.4,7.7-4.2,17.2,0.5,24.8c5,8.3,12.7,10.9,20.6,9.7&#10;&#9;&#9;c1.1,7.4,5.7,13.8,12.4,17.1c9.4,4.7,19.3,3.1,28.3-0.9c5,11.9,15.6,20.6,29.1,23.3c11.4,2.3,21.5-1.1,28.2-8.9&#10;&#9;&#9;c8.4,5.3,18.9,5.8,27.8,1.2c8.4-4.2,13.7-11.9,16-20.6c19,1.1,38.1-6.4,45.9-25.4c3.8-9.1,3.2-19.5-1.5-28.2&#10;&#9;&#9;C360,166.6,360.2,166.3,360.5,166z"/>
	<path class="st5_explosion-1-97" d="M311.4,117.1c-7-2.3-15.3-1.5-22.2,1.1c-13.2,5.1-22.8,17.3-23.2,31.5l0.3,0.1c2.9-12.7,10.1-24.3,23-28.7&#10;&#9;&#9;c9.3-3.1,21.8-3.2,30.7,2.1C317.5,120.6,315.1,118.4,311.4,117.1z"/>
	<path class="st5_explosion-1-97" d="M251,137.8c0.5,0.1,1.1,0.2,1.6,0.2c0-7.5-1.7-15.1-3.3-22.1c-1.1-5.4-3-10.7-5.7-15.5&#10;&#9;&#9;C248.9,111.8,250.2,125,251,137.8z"/>
	<path class="st5_explosion-1-97" d="M182.3,153c10.9-5.5,23.3-6.8,35.5-5.3c9.7,1.1,19,4.5,27.1,10c-4.3-2.9-7.9-6.4-12.6-8.8&#10;&#9;&#9;c-4.7-2.4-9.6-4.1-14.8-5.2c-5.1-1.1-10.4-1.4-15.6-1c-2.4,0-4.7,0.2-7,0.7c-2.8,0.8-5.6,1.6-8.3,2.6c-4.5,1.6-8.8,3.7-12.8,6.3&#10;&#9;&#9;c-7.3,4.6-13.6,11.1-17.1,19.1c0.7-1.6,3.2-3.2,4.4-4.3c1.6-1.4,3.3-2.7,5.1-4c3.4-2.5,7.1-4.6,10.6-7&#10;&#9;&#9;C178.7,155,180.5,153.9,182.3,153z"/>
	<path class="st5_explosion-1-97" d="M217.3,121.3c-6.4-1.9-13.1-2.6-19.8-1.9c-2.5,0.2-5,0.9-7.3,2c4.7-2.4,10.2-1.3,15.1,0s10.2,2.5,14.8,4.7&#10;&#9;&#9;c7.7,3.5,13.2,9.2,17.3,16C236.4,131.3,227.6,124.4,217.3,121.3z"/>
	<path class="st5_explosion-1-97" d="M327.9,194.3c6.5-14.2-3.4-31.2-17.9-36.9c-13.1-5.1-29.4-3.9-42.3,2.3c14-4.9,30.7-5.5,43.4,1.9&#10;&#9;&#9;c11,6.3,15.5,19.8,16,32.4C327.4,194.2,327.6,194.2,327.9,194.3z"/>
	<path class="st5_explosion-1-97" d="M234.9,196.1c-2.1,6.4-4,12.9-3.9,19.7c0,3.7,1.2,7.3,3.5,10.3l0.8,1c-4-20.3,4.3-44.5,22.3-54.6&#10;&#9;&#9;C244.8,174.2,238.7,184.7,234.9,196.1z"/>
	<path class="st7_explosion-1-97" d="M272.6,246.2c0,0,3.6,47.1,18.2,66.8C290.9,313,273.4,271.8,272.6,246.2z"/>
	<path class="st7_explosion-1-97" d="M279.1,326.4c0,0-13.6-36.8-13.1-62.8s0-2.1,0-2.1S261.4,292.1,279.1,326.4z"/>
	<path class="st7_explosion-1-97" d="M228.1,254.1c0,0,0.3,39.5-8.2,53.8C219.9,308,232.7,291.6,228.1,254.1z"/>
	<path class="st7_explosion-1-97" d="M240.1,261c0,0,1.9,38.5-11,65.4C229.1,326.4,245.2,305.3,240.1,261z"/>
	<path class="st7_explosion-1-97" d="M250.2,256.1c-0.4-3.2,0,77,0,77S254.4,289.8,250.2,256.1z"/>
</g>
<g id="clouds_explosion-1-97">
	<g class="st8_explosion-1-97">
		
			<image style="overflow:visible;enable-background:new    ;" width="619" height="246" xlink:href="677402EE40E87FFD.png" transform="matrix(0.24 0 0 0.24 25.2 241.25)">
		</image>
		<path class="st4_explosion-1-97" d="M158.7,284c0,0-44.2,0.9-48-3.8s-4.6-16.1-14.3-17c-9.1-0.9-9,10.9-9,10.9s-4.2-20.6-18.3-17.5&#10;&#9;&#9;&#9;c-14.1,3.2-6.7,20.9-9.3,22s-19.5,6.4-19.5,6.4L158.7,284z"/>
	</g>
	<g class="st8_explosion-1-97">
		
			<image style="overflow:visible;enable-background:new    ;" width="449" height="232" xlink:href="677402EE40E88003.png" transform="matrix(0.24 0 0 0.24 102.96 292.61)">
		</image>
		<path class="st4_explosion-1-97" d="M182.7,328c-2.4-1.9-3.8-4.7-6-6.8c-3.5-3.3-7.3-0.7-10.5,1.8c-3,2.4-6.1,4-9.6,1.4c-3.1-2.4-3.1-6.2-3.6-9.8&#10;&#9;&#9;&#9;c-0.4-2.9-1.6-5.9-4.7-6.6c-2.3-0.4-4.6,0.3-6.3,1.8c-4.3,3.6-2.6,9.3-5.2,13.8c-3.4,5.9-11,7.7-17.5,7.6l-1.2,0.4l77.6,1.6&#10;&#9;&#9;&#9;C191.2,332.3,186.2,330.8,182.7,328z"/>
	</g>
	<g class="st8_explosion-1-97">
		
			<image style="overflow:visible;enable-background:new    ;" width="619" height="245" xlink:href="677402EE40E88005.png" transform="matrix(0.24 0 0 0.24 314.88 233.09)">
		</image>
		<path class="st4_explosion-1-97" d="M330,275.9c0,0,44.2,0.9,48-3.8s4.6-16.1,14.3-17c9.1-0.9,9,10.9,9,10.9s4.1-20.6,18.3-17.5s6.7,20.9,9.3,22&#10;&#9;&#9;&#9;s19.5,6.4,19.5,6.4L330,275.9z"/>
	</g>
	<g class="st8_explosion-1-97">
		
			<image style="overflow:visible;enable-background:new    ;" width="449" height="232" xlink:href="677402EE40E88007.png" transform="matrix(0.24 0 0 0.24 310.56 289.01)">
		</image>
		<path class="st4_explosion-1-97" d="M338.7,324.4c2.4-1.9,3.8-4.7,6-6.8c3.5-3.3,7.3-0.7,10.5,1.8c3,2.4,6.1,4,9.6,1.4c3.1-2.4,3.1-6.2,3.6-9.8&#10;&#9;&#9;&#9;c0.4-2.9,1.5-5.9,4.7-6.6c2.3-0.4,4.6,0.3,6.3,1.8c4.3,3.6,2.6,9.3,5.2,13.8c3.4,5.9,11,7.7,17.5,7.6l1.2,0.4l-77.6,1.6&#10;&#9;&#9;&#9;C330.2,328.7,335.2,327.2,338.7,324.4z"/>
	</g>
</g>
</svg>